<?xml version="1.0" ?><svg data-name="Layer 2" id="Layer_2" viewBox="0 0 250 250" xmlns="http://www.w3.org/2000/svg"><title/><path d="M90.87,157.16h0l22.37-22.37a3,3,0,0,0-2.12-5.13H77a41.43,41.43,0,0,0,0,82.85h.69a3,3,0,0,0,2.72-4.09A47.47,47.47,0,0,1,90.87,157.16ZM73.31,206.32A35.43,35.43,0,0,1,77,135.66h26.94L87.12,152.47c-.17.14-.34.29-.49.44A53.35,53.35,0,0,0,73.31,206.32Zm80,8.34A47.44,47.44,0,0,1,124.49,171V139.37a3,3,0,0,0-3-3,2.94,2.94,0,0,0-2.1.89l-24.1,24.1,0,.05A41.43,41.43,0,1,0,153.81,220l.49-.49A3,3,0,0,0,153.31,214.66Zm-28.8,11.47a35.43,35.43,0,0,1-25.05-60.49l.05,0,19-19v24.45a53.38,53.38,0,0,0,28.36,47.15A35.18,35.18,0,0,1,124.51,226.13Zm85.85-58.72a2.91,2.91,0,0,0-1.11.21A47.5,47.5,0,0,1,158,157.16l-22.37-22.37a2.9,2.9,0,0,0-2.1-.89,3,3,0,0,0-3,3v33.31c0,23,18.58,42.23,41.45,42.23h.8A41.41,41.41,0,0,0,213.35,171v-.68A3,3,0,0,0,210.36,167.41Zm-13.15,28.44a35.26,35.26,0,0,1-24.57,10.6H172a34.81,34.81,0,0,1-25-10.69,36.41,36.41,0,0,1-10.44-25.54V144.15l17.25,17.25a53.53,53.53,0,0,0,53.4,13.32A35.17,35.17,0,0,1,197.21,195.85ZM220.79,94.27h.05c-.16-.17-.33-.33-.49-.49a3,3,0,0,0-4.85,1,47.44,47.44,0,0,1-43.67,28.82H140.16a3,3,0,0,0-2.12,5.12l24.1,24.1.05.05a41.43,41.43,0,1,0,58.6-58.59Zm-4.25,54.35a35.43,35.43,0,0,1-50.11,0l-.05-.05-19-19h24.43A53.41,53.41,0,0,0,219,101.27,35.5,35.5,0,0,1,216.54,148.62ZM168.47,38.83a3,3,0,0,1,2.72-4.1h.69a41.4,41.4,0,0,1,41.41,40.59c.45,23.23-19,42.25-42.23,42.25H137.75a3,3,0,0,1-2.12-5.12L158,90.08A47.47,47.47,0,0,0,168.47,38.83ZM95.61,32.58a47.41,47.41,0,0,1,28.83,43.67v34.08a2,2,0,0,0,3.41,1.42l25.8-25.81.06,0a41.44,41.44,0,0,0,0-58.6v-.05a41.43,41.43,0,0,0-58.6,0l-.48.49A3,3,0,0,0,95.61,32.58Zm28.8-11.48a35.22,35.22,0,0,1,24.64,10,6.1,6.1,0,0,0,.41.46,35.44,35.44,0,0,1,0,50.12l-.05,0-19,19V76.25A53.4,53.4,0,0,0,102.08,29,35.15,35.15,0,0,1,124.41,21.1ZM38.62,79.78a2.88,2.88,0,0,0,1.1-.22A47.61,47.61,0,0,1,91,90.08l-.06,0,1.21,1.2,21.17,21.13a2.93,2.93,0,0,0,2.09.88,3,3,0,0,0,3-3V76.15a41.43,41.43,0,0,0-82.85,0c0,.23,0,.45,0,.68A3,3,0,0,0,38.62,79.78ZM77,40.73a35.46,35.46,0,0,1,35.43,35.42V103.1l-16-16-.54-.54a4.71,4.71,0,0,0-.62-.72A53.62,53.62,0,0,0,41.81,72.47,35.48,35.48,0,0,1,77,40.73ZM36.72,146.11c.53-.84,1.1-1.68,1.68-2.52a5.08,5.08,0,0,0,.37-.52c.62-.84,1.3-1.68,2-2.51.15-.16.26-.32.41-.47.69-.79,1.37-1.52,2.1-2.26a.83.83,0,0,1,.21-.21c.78-.78,1.57-1.51,2.36-2.2.15-.15.36-.31.52-.47.84-.68,1.62-1.36,2.51-2a3.3,3.3,0,0,1,.37-.26c.78-.57,1.62-1.15,2.46-1.67a4.73,4.73,0,0,1,.52-.32A30.45,30.45,0,0,1,55,129.14a6.11,6.11,0,0,0,.58-.31c.94-.47,1.88-1,2.88-1.36,0,0,.1-.06.15-.06,1-.42,2-.78,3.09-1.15.21-.05.47-.16.68-.21l3.14-.94c.16,0,.32,0,.48-.11,1-.26,2-.42,3-.63l.54-.1c1.1-.16,2.2-.31,3.3-.42.26,0,.47,0,.73,0,1.15-.11,2.3-.16,3.51-.16h31.66a3,3,0,0,0,2.12-5.12L87.31,95A42.62,42.62,0,0,0,57.17,82.51,40.84,40.84,0,0,0,27.57,95a41.44,41.44,0,0,0,.57,58c.36.36.73.72,1.11,1.07a2.32,2.32,0,0,0,1.6.63,2.44,2.44,0,0,0,2.25-1.52v0c0-.1.11-.26.16-.36.42-1,.89-2,1.36-2.93l.31-.63,1.57-2.83A.55.55,0,0,1,36.72,146.11Zm-.62-9.34c-.71.87-1.44,1.77-2.13,2.7-.1.13-.19.26-.28.4s-.17.23-.24.34c-.49.71-1,1.44-1.48,2.19a6.88,6.88,0,0,0-.74,1.13l-.19.34L29.88,146a35.43,35.43,0,0,1,2-46.84,34.71,34.71,0,0,1,25.28-10.6,36.37,36.37,0,0,1,25.9,10.68l18.45,18.45H77.1c-1.32,0-2.59.06-3.87.17-.25,0-.46,0-.62,0l-.32,0c-1.24.12-2.43.29-3.58.45l-.21,0-.25,0-.29,0-.19,0-.92.18c-.68.13-1.45.28-2.26.49-.2,0-.49.1-.83.2l-.75.23-2.28.68-.59.18,0,0a2.4,2.4,0,0,0-.38.12c-1,.36-2.1.73-3.18,1.17l-.11,0a1.88,1.88,0,0,0-.3.12c-1.18.49-2.23,1-3.24,1.52l-.46.25-.11.06c-1.13.57-2.18,1.16-3.13,1.76-.32.18-.57.34-.75.46-.84.53-1.71,1.12-2.6,1.76-.15.1-.39.26-.67.48-.76.56-1.44,1.11-2,1.61l-.55.46a3.65,3.65,0,0,0-.36.31l0,0-.39.35c-.77.67-1.55,1.4-2.32,2.15a7.86,7.86,0,0,0-.64.65c-.73.73-1.41,1.47-2.1,2.26-.15.16-.27.3-.36.41Z"/></svg>