<svg id="Layer_1" data-name="Layer 1" xmlns="http://www.w3.org/2000/svg" viewBox="0 0 276 47"><defs><style>.cls-1{fill:none;}.cls-2{fill:#fe0201;}.cls-3{fill:#161616;}</style></defs><title>logo_black_273</title><rect class="cls-1" width="276" height="47"/><path class="cls-2" d="M2.25,1.75l8.36,1.62.66,31.44,27.62-.48a.16.16,0,0,1,.16.15L39.17,42q-18,2.19-35.46,3.25a1,1,0,0,1-1-.68C2.19,40.38,2.18,17.88,2.25,1.75Z"/><path class="cls-3" d="M14.48,4.07v9l15.43,2.27.58,15.15h8L38.15,9.77A1.43,1.43,0,0,0,37,8.41Z"/><path class="cls-3" d="M54,38.48H47.53V13.28h20v5H54v5.94H64.63v5H54Z"/><path class="cls-3" d="M79.39,38.48a31.2,31.2,0,0,1-4.6.36,5,5,0,0,1-3.65-1.48,5.31,5.31,0,0,1-1.48-3.92V13.28H76V32.54a1.18,1.18,0,0,0,.36.9,1.21,1.21,0,0,0,.9.36h2.16Z"/><path class="cls-3" d="M99.54,38.12a123.17,123.17,0,0,1-12.6.72,5.09,5.09,0,0,1-5.4-5.4V24.8a5.72,5.72,0,0,1,1.53-4.23A5.72,5.72,0,0,1,87.3,19h7.2a5.72,5.72,0,0,1,4.23,1.53,5.72,5.72,0,0,1,1.53,4.23v6.66H87.84V32.9a1.25,1.25,0,0,0,1.26,1.26q3.57,0,10.44-.54ZM89.28,23.54A1.27,1.27,0,0,0,87.84,25v2H94V25a1.27,1.27,0,0,0-1.44-1.44Z"/><path class="cls-3" d="M114.3,19.4h7l-5.76,9.54,5.94,9.54h-7l-3.24-5.76L108,38.48h-7l5.94-9.54-5.76-9.54h7l3.06,5.76Z"/><path class="cls-3" d="M122.55,33.26c6.57.36,11,.54,13.35.54a1.81,1.81,0,0,0,1.32-.49A1.78,1.78,0,0,0,137.7,32V28.76h-8.28q-3.78,0-5.49-1.71t-1.71-5.49V20.48q0-3.78,1.71-5.49t5.49-1.71h12.64v5h-11.2a1.91,1.91,0,0,0-2.16,2.16v.72a1.91,1.91,0,0,0,2.16,2.16h6.48c2.36,0,4.08.55,5.19,1.65s1.65,2.83,1.65,5.19V32q0,3.53-1.65,5.18c-1.11,1.1-2.83,1.66-5.19,1.66-1.22,0-2.52,0-3.88-.08l-3.32-.14c-2.44-.12-5-.29-7.59-.5Z"/><path class="cls-3" d="M166.5,33.08a5.3,5.3,0,0,1-5.76,5.76h-8.28a5.3,5.3,0,0,1-5.76-5.76V24.8a5.72,5.72,0,0,1,1.53-4.23A5.72,5.72,0,0,1,152.46,19h8.28A5.72,5.72,0,0,1,165,20.57a5.72,5.72,0,0,1,1.53,4.23Zm-6.3-7.74a1.27,1.27,0,0,0-1.44-1.44h-4.32A1.27,1.27,0,0,0,153,25.34v7.2A1.27,1.27,0,0,0,154.44,34h4.32a1.27,1.27,0,0,0,1.44-1.44Z"/><path class="cls-3" d="M179.46,38.48a31.18,31.18,0,0,1-4.59.36,5,5,0,0,1-3.65-1.48,5.27,5.27,0,0,1-1.48-3.92V13.28H176V32.54a1.23,1.23,0,0,0,1.26,1.26h2.16Z"/><path class="cls-3" d="M190.8,33.62a15.31,15.31,0,0,0,4.32-.72V19.4h6.3V38.48h-5.58l-.36-1.8A12.71,12.71,0,0,1,192,38.31a11,11,0,0,1-3,.53h-1.62a5.09,5.09,0,0,1-5.4-5.4v-14h6.3v13a1.23,1.23,0,0,0,1.26,1.26Z"/><path class="cls-3" d="M218.34,38.48a66.75,66.75,0,0,1-6.84.36,5.09,5.09,0,0,1-5.4-5.4V24.26h-2.16V19.4h2.16l.72-4.32h5.58V19.4h4.5v4.86h-4.5v8.28a1.23,1.23,0,0,0,1.26,1.26h4.68Z"/><path class="cls-3" d="M228.06,20.12V38.48h-6.3V25h-2.7V20.12Zm-6.3-7.2h6.3v5h-6.3Z"/><path class="cls-3" d="M251.1,33.08a5.3,5.3,0,0,1-5.76,5.76h-8.28a5.3,5.3,0,0,1-5.76-5.76V24.8a5.72,5.72,0,0,1,1.53-4.23A5.72,5.72,0,0,1,237.06,19h8.28a5.72,5.72,0,0,1,4.23,1.53,5.72,5.72,0,0,1,1.53,4.23Zm-6.3-7.74a1.27,1.27,0,0,0-1.44-1.44H239a1.27,1.27,0,0,0-1.44,1.44v7.2A1.27,1.27,0,0,0,239,34h4.32a1.27,1.27,0,0,0,1.44-1.44Z"/><path class="cls-3" d="M265,24.26a15.31,15.31,0,0,0-4.32.72v13.5h-6.3V19.4h5.58l.36,1.8a12.88,12.88,0,0,1,3.47-1.64,11,11,0,0,1,3-.52h1.62a5.07,5.07,0,0,1,5.4,5.4v14h-6.3v-13a1.23,1.23,0,0,0-1.26-1.26Z"/></svg>